<?xml version="1.0" encoding="UTF-8"?>

<svg id="layout" xmlns="http://www.w3.org/2000/svg" viewBox="0 0 828 179">
	<rect id="acetoneFrame" x="47" width="64" height="88"/>
	<rect id="metrocardFrame" x="115" y="23" width="89" height="65"/>
	<rect id="britaFrame" x="208" y="21" width="49" height="67"/>
	<rect id="juiceFrame" x="261" y="11" width="56" height="77"/>
	<rect id="foilFrame" x="321" y="1" width="63" height="87"/>
	<rect id="lotionFrame" x="388" y="16" width="52" height="72"/>
	<rect id="dryerSheetsFrame" x="444" y="1" width="63" height="87"/>
	<rect id="receiptsFrame" x="511" y="9" width="109" height="79"/>
	<rect id="tostitosFrame" x="624" y="10" width="56" height="78"/>
	<rect id="cottonFrame" y="92" width="71" height="52"/>
	<rect id="alcoholSwabsFrame" x="75" y="92" width="53" height="72"/>
	<rect id="coffeeFrame" x="132" y="92" width="64" height="87"/>
	<rect id="makeupRemoverFrame" x="200" y="92" width="56" height="77"/>
	<rect id="lipBalmFrame" x="260" y="92" width="101" height="75"/>
	<rect id="smoothieFrame" x="365" y="92" width="56" height="77"/>
	<rect id="matzaFrame" x="425" y="92" width="90" height="66"/>
	<rect id="kitKatFrame" x="519" y="92" width="64" height="87"/>
	<rect id="tideFrame" x="587" y="92" width="52" height="72"/>
	<rect id="masksFrame" x="643" y="92" width="118" height="87"/>
	<rect id="packagesFrame" x="765" y="92" width="63" height="87"/>
	<rect id="paperBagsFrame" x="684" y="17" width="97" height="71"/>
</svg>